<svg width="1024" height="1024" viewBox="0 0 1024 1024" fill="none" xmlns="http://www.w3.org/2000/svg">
<g filter="url(#filter0_d_102_69)">
<path fill-rule="evenodd" clip-rule="evenodd" d="M924 354.627C924 344.845 924.004 335.062 923.944 325.279C923.895 317.038 923.8 308.799 923.576 300.562C923.092 282.609 922.033 264.502 918.84 246.749C915.602 228.741 910.314 211.98 901.981 195.617C893.789 179.534 883.088 164.817 870.32 152.058C857.555 139.299 842.834 128.605 826.746 120.418C810.366 112.083 793.587 106.797 775.558 103.56C757.803 100.372 739.691 99.315 721.738 98.83C713.495 98.607 705.253 98.513 697.008 98.462C687.22 98.402 677.432 98.407 667.644 98.407L553.997 98H468.997L357.361 98.407C347.554 98.407 337.747 98.402 327.94 98.462C319.678 98.513 311.42 98.607 303.161 98.83C285.167 99.315 267.014 100.373 249.217 103.565C231.164 106.801 214.36 112.085 197.958 120.414C181.835 128.602 167.083 139.297 154.291 152.058C141.501 164.816 130.78 179.53 122.573 195.61C114.217 211.981 108.919 228.752 105.673 246.77C102.477 264.516 101.418 282.617 100.931 300.562C100.709 308.8 100.613 317.039 100.563 325.279C100.503 335.063 100 347.216 100 356.999L100.003 467.089L100 552.998L100.508 665.427C100.508 675.223 100.504 685.019 100.563 694.815C100.613 703.067 100.709 711.317 100.932 719.566C101.418 737.542 102.479 755.675 105.678 773.452C108.923 791.484 114.22 808.269 122.569 824.653C130.777 840.759 141.5 855.495 154.291 868.272C167.082 881.049 181.83 891.757 197.95 899.956C214.362 908.302 231.174 913.595 249.238 916.836C267.027 920.029 285.174 921.088 303.161 921.573C311.42 921.796 319.679 921.891 327.941 921.941C337.748 922.001 347.554 921.997 357.361 921.997L470.006 922H555.217L667.644 921.996C677.432 921.996 687.22 922.001 697.008 921.941C705.253 921.891 713.495 921.796 721.738 921.573C739.698 921.087 757.816 920.027 775.579 916.832C793.597 913.591 810.368 908.3 826.739 899.959C842.831 891.761 857.554 881.051 870.32 868.272C883.086 855.497 893.786 840.763 901.978 824.66C910.316 808.268 915.604 791.475 918.844 773.431C922.034 755.661 923.092 737.535 923.577 719.566C923.8 711.316 923.895 703.066 923.944 694.815C924.005 685.019 924 675.223 924 665.427C924 665.427 923.994 554.983 923.994 552.998V466.999C923.994 465.533 924 354.627 924 354.627Z" fill="url(#paint0_linear_102_69)"/>
</g>
<mask id="mask0_102_69" style="mask-type:alpha" maskUnits="userSpaceOnUse" x="100" y="98" width="824" height="824">
<path fill-rule="evenodd" clip-rule="evenodd" d="M924 354.627C924 344.845 924.004 335.062 923.944 325.279C923.895 317.038 923.8 308.799 923.576 300.562C923.092 282.609 922.033 264.502 918.84 246.749C915.602 228.741 910.314 211.98 901.981 195.617C893.789 179.534 883.088 164.817 870.32 152.058C857.555 139.299 842.834 128.605 826.746 120.418C810.366 112.083 793.587 106.797 775.558 103.56C757.803 100.372 739.691 99.315 721.738 98.83C713.495 98.607 705.253 98.513 697.008 98.462C687.22 98.402 677.432 98.407 667.644 98.407L553.997 98H468.997L357.361 98.407C347.554 98.407 337.747 98.402 327.94 98.462C319.678 98.513 311.42 98.607 303.161 98.83C285.167 99.315 267.014 100.373 249.217 103.565C231.164 106.801 214.36 112.085 197.958 120.414C181.835 128.602 167.083 139.297 154.291 152.058C141.501 164.816 130.78 179.53 122.573 195.61C114.217 211.981 108.919 228.752 105.673 246.77C102.477 264.516 101.418 282.617 100.931 300.562C100.709 308.8 100.613 317.039 100.563 325.279C100.503 335.063 100 347.216 100 356.999L100.003 467.089L100 552.998L100.508 665.427C100.508 675.223 100.504 685.019 100.563 694.815C100.613 703.067 100.709 711.317 100.932 719.566C101.418 737.542 102.479 755.675 105.678 773.452C108.923 791.484 114.22 808.269 122.569 824.653C130.777 840.759 141.5 855.495 154.291 868.272C167.082 881.049 181.83 891.757 197.95 899.956C214.362 908.302 231.174 913.595 249.238 916.836C267.027 920.029 285.174 921.088 303.161 921.573C311.42 921.796 319.679 921.891 327.941 921.941C337.748 922.001 347.554 921.997 357.361 921.997L470.006 922H555.217L667.644 921.996C677.432 921.996 687.22 922.001 697.008 921.941C705.253 921.891 713.495 921.796 721.738 921.573C739.698 921.087 757.816 920.027 775.579 916.832C793.597 913.591 810.368 908.3 826.739 899.959C842.831 891.761 857.554 881.051 870.32 868.272C883.086 855.497 893.786 840.763 901.978 824.66C910.316 808.268 915.604 791.475 918.844 773.431C922.034 755.661 923.092 737.535 923.577 719.566C923.8 711.316 923.895 703.066 923.944 694.815C924.005 685.019 924 675.223 924 665.427C924 665.427 923.994 554.983 923.994 552.998V466.999C923.994 465.533 924 354.627 924 354.627Z" fill="white"/>
</mask>
<g mask="url(#mask0_102_69)">
<rect x="42" y="36" width="914" height="914" fill="url(#paint1_linear_102_69)"/>
<g filter="url(#filter1_b_102_69)">
<rect x="100" y="98" width="824" height="824" rx="126" fill="black" fill-opacity="0.01"/>
</g>
<g filter="url(#filter2_diii_102_69)">
<circle cx="512" cy="498" r="342" fill="url(#paint2_linear_102_69)"/>
</g>
<g filter="url(#filter3_diiii_102_69)">
<circle cx="512" cy="498" r="251" fill="white"/>
</g>
<g filter="url(#filter4_di_102_69)">
<path fill-rule="evenodd" clip-rule="evenodd" d="M382.401 368H674L487.7 562.999H576.801L641.6 628H350L536.301 432.998H447.2L382.401 368Z" fill="black"/>
</g>
</g>
<defs>
<filter id="filter0_d_102_69" x="90" y="98" width="844" height="844" filterUnits="userSpaceOnUse" color-interpolation-filters="sRGB">
<feFlood flood-opacity="0" result="BackgroundImageFix"/>
<feColorMatrix in="SourceAlpha" type="matrix" values="0 0 0 0 0 0 0 0 0 0 0 0 0 0 0 0 0 0 127 0" result="hardAlpha"/>
<feOffset dy="10"/>
<feGaussianBlur stdDeviation="5"/>
<feColorMatrix type="matrix" values="0 0 0 0 0 0 0 0 0 0 0 0 0 0 0 0 0 0 0.3 0"/>
<feBlend mode="normal" in2="BackgroundImageFix" result="effect1_dropShadow_102_69"/>
<feBlend mode="normal" in="SourceGraphic" in2="effect1_dropShadow_102_69" result="shape"/>
</filter>
<filter id="filter1_b_102_69" x="89.1269" y="87.1269" width="845.746" height="845.746" filterUnits="userSpaceOnUse" color-interpolation-filters="sRGB">
<feFlood flood-opacity="0" result="BackgroundImageFix"/>
<feGaussianBlur in="BackgroundImage" stdDeviation="5.43656"/>
<feComposite in2="SourceAlpha" operator="in" result="effect1_backgroundBlur_102_69"/>
<feBlend mode="normal" in="SourceGraphic" in2="effect1_backgroundBlur_102_69" result="shape"/>
</filter>
<filter id="filter2_diii_102_69" x="145" y="127.866" width="739" height="752.134" filterUnits="userSpaceOnUse" color-interpolation-filters="sRGB">
<feFlood flood-opacity="0" result="BackgroundImageFix"/>
<feColorMatrix in="SourceAlpha" type="matrix" values="0 0 0 0 0 0 0 0 0 0 0 0 0 0 0 0 0 0 127 0" result="hardAlpha"/>
<feOffset dy="15"/>
<feGaussianBlur stdDeviation="12.5"/>
<feColorMatrix type="matrix" values="0 0 0 0 0 0 0 0 0 0 0 0 0 0 0 0 0 0 0.4 0"/>
<feBlend mode="normal" in2="BackgroundImageFix" result="effect1_dropShadow_102_69"/>
<feBlend mode="normal" in="SourceGraphic" in2="effect1_dropShadow_102_69" result="shape"/>
<feColorMatrix in="SourceAlpha" type="matrix" values="0 0 0 0 0 0 0 0 0 0 0 0 0 0 0 0 0 0 127 0" result="hardAlpha"/>
<feOffset dy="-28.1342"/>
<feGaussianBlur stdDeviation="18.7561"/>
<feComposite in2="hardAlpha" operator="arithmetic" k2="-1" k3="1"/>
<feColorMatrix type="matrix" values="0 0 0 0 0 0 0 0 0 0 0 0 0 0 0 0 0 0 0.5 0"/>
<feBlend mode="normal" in2="shape" result="effect2_innerShadow_102_69"/>
<feColorMatrix in="SourceAlpha" type="matrix" values="0 0 0 0 0 0 0 0 0 0 0 0 0 0 0 0 0 0 127 0" result="hardAlpha"/>
<feOffset dx="30"/>
<feGaussianBlur stdDeviation="35"/>
<feComposite in2="hardAlpha" operator="arithmetic" k2="-1" k3="1"/>
<feColorMatrix type="matrix" values="0 0 0 0 1 0 0 0 0 1 0 0 0 0 1 0 0 0 0.2 0"/>
<feBlend mode="normal" in2="effect2_innerShadow_102_69" result="effect3_innerShadow_102_69"/>
<feColorMatrix in="SourceAlpha" type="matrix" values="0 0 0 0 0 0 0 0 0 0 0 0 0 0 0 0 0 0 127 0" result="hardAlpha"/>
<feOffset dx="-10"/>
<feGaussianBlur stdDeviation="20"/>
<feComposite in2="hardAlpha" operator="arithmetic" k2="-1" k3="1"/>
<feColorMatrix type="matrix" values="0 0 0 0 0.583333 0 0 0 0 0.583333 0 0 0 0 0.583333 0 0 0 0.3 0"/>
<feBlend mode="normal" in2="effect3_innerShadow_102_69" result="effect4_innerShadow_102_69"/>
</filter>
<filter id="filter3_diiii_102_69" x="227" y="217" width="610" height="610" filterUnits="userSpaceOnUse" color-interpolation-filters="sRGB">
<feFlood flood-opacity="0" result="BackgroundImageFix"/>
<feColorMatrix in="SourceAlpha" type="matrix" values="0 0 0 0 0 0 0 0 0 0 0 0 0 0 0 0 0 0 127 0" result="hardAlpha"/>
<feOffset dx="20" dy="24"/>
<feGaussianBlur stdDeviation="27"/>
<feColorMatrix type="matrix" values="0 0 0 0 0 0 0 0 0 0 0 0 0 0 0 0 0 0 0.25 0"/>
<feBlend mode="normal" in2="BackgroundImageFix" result="effect1_dropShadow_102_69"/>
<feBlend mode="normal" in="SourceGraphic" in2="effect1_dropShadow_102_69" result="shape"/>
<feColorMatrix in="SourceAlpha" type="matrix" values="0 0 0 0 0 0 0 0 0 0 0 0 0 0 0 0 0 0 127 0" result="hardAlpha"/>
<feOffset dx="-10" dy="-16"/>
<feGaussianBlur stdDeviation="27.5"/>
<feComposite in2="hardAlpha" operator="arithmetic" k2="-1" k3="1"/>
<feColorMatrix type="matrix" values="0 0 0 0 0 0 0 0 0 0 0 0 0 0 0 0 0 0 0.25 0"/>
<feBlend mode="normal" in2="shape" result="effect2_innerShadow_102_69"/>
<feColorMatrix in="SourceAlpha" type="matrix" values="0 0 0 0 0 0 0 0 0 0 0 0 0 0 0 0 0 0 127 0" result="hardAlpha"/>
<feOffset dy="-16"/>
<feGaussianBlur stdDeviation="12"/>
<feComposite in2="hardAlpha" operator="arithmetic" k2="-1" k3="1"/>
<feColorMatrix type="matrix" values="0 0 0 0 0 0 0 0 0 0.215323 0 0 0 0 0.741667 0 0 0 0.28 0"/>
<feBlend mode="normal" in2="effect2_innerShadow_102_69" result="effect3_innerShadow_102_69"/>
<feColorMatrix in="SourceAlpha" type="matrix" values="0 0 0 0 0 0 0 0 0 0 0 0 0 0 0 0 0 0 127 0" result="hardAlpha"/>
<feOffset dx="30" dy="12"/>
<feGaussianBlur stdDeviation="17"/>
<feComposite in2="hardAlpha" operator="arithmetic" k2="-1" k3="1"/>
<feColorMatrix type="matrix" values="0 0 0 0 1 0 0 0 0 1 0 0 0 0 1 0 0 0 1 0"/>
<feBlend mode="normal" in2="effect3_innerShadow_102_69" result="effect4_innerShadow_102_69"/>
<feColorMatrix in="SourceAlpha" type="matrix" values="0 0 0 0 0 0 0 0 0 0 0 0 0 0 0 0 0 0 127 0" result="hardAlpha"/>
<feOffset dx="-24" dy="-26"/>
<feGaussianBlur stdDeviation="47"/>
<feComposite in2="hardAlpha" operator="arithmetic" k2="-1" k3="1"/>
<feColorMatrix type="matrix" values="0 0 0 0 0 0 0 0 0 0.28 0 0 0 0 1 0 0 0 0.33 0"/>
<feBlend mode="normal" in2="effect4_innerShadow_102_69" result="effect5_innerShadow_102_69"/>
</filter>
<filter id="filter4_di_102_69" x="316" y="338" width="432" height="368" filterUnits="userSpaceOnUse" color-interpolation-filters="sRGB">
<feFlood flood-opacity="0" result="BackgroundImageFix"/>
<feColorMatrix in="SourceAlpha" type="matrix" values="0 0 0 0 0 0 0 0 0 0 0 0 0 0 0 0 0 0 127 0" result="hardAlpha"/>
<feOffset dx="20" dy="24"/>
<feGaussianBlur stdDeviation="27"/>
<feColorMatrix type="matrix" values="0 0 0 0 0 0 0 0 0 0 0 0 0 0 0 0 0 0 0.25 0"/>
<feBlend mode="normal" in2="BackgroundImageFix" result="effect1_dropShadow_102_69"/>
<feBlend mode="normal" in="SourceGraphic" in2="effect1_dropShadow_102_69" result="shape"/>
<feColorMatrix in="SourceAlpha" type="matrix" values="0 0 0 0 0 0 0 0 0 0 0 0 0 0 0 0 0 0 127 0" result="hardAlpha"/>
<feOffset dx="30" dy="12"/>
<feGaussianBlur stdDeviation="17"/>
<feComposite in2="hardAlpha" operator="arithmetic" k2="-1" k3="1"/>
<feColorMatrix type="matrix" values="0 0 0 0 0.3375 0 0 0 0 0.3375 0 0 0 0 0.3375 0 0 0 1 0"/>
<feBlend mode="normal" in2="shape" result="effect2_innerShadow_102_69"/>
</filter>
<linearGradient id="paint0_linear_102_69" x1="-181.14" y1="98" x2="-181.14" y2="1484.28" gradientUnits="userSpaceOnUse">
<stop stop-color="white"/>
<stop offset="0.489516" stop-color="#EFEFEF"/>
<stop offset="1" stop-color="#C0C0C0"/>
</linearGradient>
<linearGradient id="paint1_linear_102_69" x1="928.377" y1="992.826" x2="928.377" y2="134.072" gradientUnits="userSpaceOnUse">
<stop stop-color="#F6F3F3"/>
<stop offset="1" stop-color="white"/>
</linearGradient>
<linearGradient id="paint2_linear_102_69" x1="444.556" y1="279.768" x2="766.066" y2="810.885" gradientUnits="userSpaceOnUse">
<stop stop-opacity="0.54"/>
<stop offset="0.171875" stop-color="#1D1D1D"/>
<stop offset="1" stop-color="#353535"/>
</linearGradient>
</defs>
</svg>
